<?xml version="1.0" encoding="UTF-8"?>
<svg width="465px" height="145px" viewBox="0 0 465 145" version="1.1" xmlns="http://www.w3.org/2000/svg" xmlns:xlink="http://www.w3.org/1999/xlink">
    <!-- Generator: Sketch 43.2 (39069) - http://www.bohemiancoding.com/sketch -->
    <title>logo</title>
    <desc>Created with Sketch.</desc>
    <defs></defs>
    <g id="Page-1" stroke="none" stroke-width="1" fill="none" fill-rule="evenodd">
        <g id="logo" fill="#FFFFFF">
            <g id="Simput-3047" transform="translate(11.000000, 0.000000)">
                <polygon id="Fill-5" points="51 62 66 62 66 47 51 47"></polygon>
                <polygon id="Fill-6" points="83 62 68 62 68 47"></polygon>
                <polygon id="Fill-6" transform="translate(41.500000, 54.500000) scale(-1, 1) translate(-41.500000, -54.500000) " points="49 62 34 62 34 47"></polygon>
                <polygon id="Fill-6" transform="translate(109.270599, 14.352208) scale(-1, 1) translate(-109.270599, -14.352208) " points="116.811199 21.9160516 101.73 21.9160516 101.73 6.78836498"></polygon>
                <polygon id="Fill-6" transform="translate(419.540000, 7.563843) scale(-1, 1) translate(-419.540000, -7.563843) " points="427.08 15.1276866 412 15.1276866 412 0"></polygon>
                <polygon id="Fill-7" points="0 81 15 81 15 96"></polygon>
                <polygon id="Fill-8" points="68 79.1276866 83.0811996 79.1276866 83.0811996 64 68 64"></polygon>
                <polygon id="Fill-9" points="34 96 49 96 49 81 34 81"></polygon>
                <polygon id="Fill-9" points="17 96 32 96 32 81 17 81"></polygon>
                <polygon id="Fill-10" points="51 96 66 96 66 81 51 81"></polygon>
                <polygon id="Fill-17" points="68 96 68 81 83 81"></polygon>
                <polygon id="Fill-17" points="247.729866 137.015265 247.729866 121.887578 262.811066 121.887578"></polygon>
                <polygon id="Fill-19" points="102.219117 95.0142304 118.062593 95.0142304 118.062593 30.5288848 102.219117 30.5288848"></polygon>
                <g id="Group-38" transform="translate(132.000000, 12.060000)">
                    <path d="M42.9521726,82.9574765 L42.9521726,48.5644811 C42.9521726,40.097624 38.5355745,32.4118175 29.8339728,32.4118175 C21.2615397,32.4118175 16.1966726,40.097624 16.1966726,48.5644811 L16.1966726,82.9574765 L0.353195957,82.9574765 L0.353195957,18.6016977 L15.0280904,18.6016977 L16.1966726,26.4188959 C19.5732507,19.905882 26.9758887,17.5615134 33.0795629,17.5615134 C40.7441768,17.5615134 48.4057585,20.687541 52.0430996,29.5449235 C57.7574486,20.4259742 65.1588737,17.8200387 73.4705437,17.8200387 C91.6523977,17.8200387 100.614763,29.0248313 100.614763,48.3059558 L100.614763,82.9574765 L84.770073,82.9574765 L84.770073,48.3059558 C84.770073,39.8360571 81.2637198,32.6733843 72.6912868,32.6733843 C64.1212794,32.6733843 58.7944364,40.097624 58.7944364,48.5644811 L58.7944364,82.9574765 L42.9521726,82.9574765 Z" id="Fill-20"></path>
                    <path d="M169.075368,50.9115263 C169.075368,40.878918 162.321605,32.6736276 150.893514,32.6736276 C139.46239,32.6736276 132.708628,40.878918 132.708628,50.9115263 C132.708628,60.9417014 140.112478,69.1494249 150.893514,69.1494249 C161.671517,69.1494249 169.075368,60.9417014 169.075368,50.9115263 L169.075368,50.9115263 Z M115.437625,109.794476 L115.437625,18.7333327 L130.242294,18.7333327 L131.282314,27.5913235 C136.217406,20.4262175 144.787414,17.3001899 152.062096,17.3001899 C171.801857,17.3001899 184.920057,32.0215355 184.920057,50.9115263 C184.920057,69.6695171 173.099608,84.5204295 152.58059,84.5204295 C145.826827,84.5204295 135.827475,82.4376276 131.282314,75.4014802 L131.282314,109.794476 L115.437625,109.794476 Z" id="Fill-22"></path>
                    <path d="M211.555727,18.733576 L211.555727,52.3424793 C211.555727,62.1135207 216.880145,69.5401935 227.011092,69.5401935 C236.749681,69.5401935 243.374275,61.33247 243.374275,51.5608203 L243.374275,18.733576 L259.089796,18.733576 L259.089796,83.0893548 L244.932183,83.0893548 L243.892769,74.3609309 C237.270601,80.874553 231.166927,84.0005806 222.205168,84.0005806 C206.878973,84.0005806 195.711038,72.4046544 195.711038,52.4744793 L195.711038,18.733576 L211.555727,18.733576 Z" id="Fill-24"></path>
                    <path d="M295.464117,0.624879263 L295.464117,18.8627779 L313.127477,18.8627779 L313.127477,32.541506 L295.334948,32.541506 L295.334948,60.2894876 C295.334948,66.4144092 298.709707,69.4084369 303.647224,69.4084369 C306.113557,69.4084369 308.971642,68.6267779 311.308806,67.4545935 L315.722978,81.0037548 C311.177212,82.8280313 307.410702,83.6096903 302.607204,83.7392571 C288.710354,84.2617825 279.619427,76.3150175 279.619427,60.2894876 L279.619427,32.541506 L267.669809,32.541506 L267.669809,18.8627779 L279.619427,18.8627779 L279.619427,2.31715576 L295.464117,0.624879263 Z" id="Fill-26"></path>
                </g>
            </g>
            <path d="M49.990102,23.5864906 C59.8602859,23.5864906 68.432719,28.5367947 71.5491404,33.7480574 L74.9372406,32.0004261 L84.0839588,24.6735136 C76.8232244,12.2551726 62.914852,8.60479474 49.471608,8.60479474 C32.7166736,8.73557815 14.2764822,16.4219929 14.2764822,35.180592 C14.2764822,51.4731634 22.1940507,57.4999206 36.0072143,60.5712017 C44.9204586,55.7273492 48.697884,51.0045473 54.8276345,47.6735243 C51.5893215,46.9983169 50.1694846,47.018864 46.7641577,46.5402765 C42.624854,45.9585353 31.1581596,43.6486657 31.1581596,35.7019007 C31.1581596,28.9285367 37.2618339,23.5864906 49.990102,23.5864906 Z" id="Fill-34" transform="translate(49.180220, 34.587998) rotate(-8.000000) translate(-49.180220, -34.587998) "></path>
        </g>
    </g>
</svg>