<?xml version="1.0" encoding="UTF-8"?>
<svg width="465px" height="145px" viewBox="0 0 465 145" version="1.1" xmlns="http://www.w3.org/2000/svg" xmlns:xlink="http://www.w3.org/1999/xlink">
    <!-- Generator: Sketch 43.2 (39069) - http://www.bohemiancoding.com/sketch -->
    <title>logo</title>
    <desc>Created with Sketch.</desc>
    <defs></defs>
    <g id="Page-1" stroke="none" stroke-width="1" fill="none" fill-rule="evenodd">
        <g id="logo">
            <g id="Simput-3047" transform="translate(10.000000, 7.000000)">
                <polygon id="Fill-1" fill="#B0ACA9" points="17.2910147 89.015447 32.3722144 89.015447 32.3722144 73.8877604 17.2910147 73.8877604"></polygon>
                <polygon id="Fill-2" fill="#B0ACA9" points="66.7298663 89.015447 81.811066 89.015447 81.811066 73.8877604 66.7298663 73.8877604"></polygon>
                <polygon id="Fill-3" fill="#B0ACA9" points="66.7298663 55.9162949 81.811066 55.9162949 81.811066 40.7886083 66.7298663 40.7886083"></polygon>
                <polygon id="Fill-4" fill="#1A1918" points="33.6172062 55.9162949 48.6984059 55.9162949 48.6984059 40.7886083 33.6172062 40.7886083"></polygon>
                <polygon id="Fill-5" fill="#1A1918" points="50.1738395 55.9162949 65.2550391 55.9162949 65.2550391 40.7886083 50.1738395 40.7886083"></polygon>
                <polygon id="Fill-6" fill="#1A1918" points="81.8110053 55.9160516 66.7298057 55.9160516 66.7298057 40.788365"></polygon>
                <polygon id="Fill-7" fill="#1A1918" points="17.2910754 73.8876387 32.372275 73.8876387 32.372275 89.0153253"></polygon>
                <polygon id="Fill-8" fill="#1A1918" points="66.7298663 72.2928111 81.811066 72.2928111 81.811066 57.1651244 66.7298663 57.1651244"></polygon>
                <polygon id="Fill-9" fill="#1A1918" points="33.6172062 89.015447 48.6984059 89.015447 48.6984059 73.8877604 33.6172062 73.8877604"></polygon>
                <polygon id="Fill-10" fill="#1A1918" points="50.1738395 89.015447 65.2550391 89.015447 65.2550391 73.8877604 50.1738395 73.8877604"></polygon>
                <polygon id="Fill-11" fill="#B0ACA9" points="50.1738395 72.2928111 65.2550391 72.2928111 65.2550391 57.1651244 50.1738395 57.1651244"></polygon>
                <polygon id="Fill-12" fill="#B0ACA9" points="33.6172062 72.2928111 48.6984059 72.2928111 48.6984059 57.1651244 33.6172062 57.1651244"></polygon>
                <polygon id="Fill-13" fill="#B0ACA9" points="32.3722144 72.2926894 17.2910147 72.2926894 17.2910147 67.8782931 32.3722144 57.1650028"></polygon>
                <polygon id="Fill-14" fill="#B0ACA9" points="66.7298663 39.7563318 81.811066 39.7563318 81.811066 24.6286452 66.7298663 24.6286452"></polygon>
                <polygon id="Fill-15" fill="#B0ACA9" points="81.8110053 23.6179023 66.7298057 23.6179023 74.2707087 19.6420866 81.8110053 15.6480221"></polygon>
                <polygon id="Fill-16" fill="#B0ACA9" points="65.2547966 39.7563926 50.1735969 39.7563926 59.5149777 33.8650562 65.2547966 29.1355631"></polygon>
                <polygon id="Fill-17" fill="#1A1918" points="66.7298663 89.0152645 66.7298663 73.8875779 81.811066 73.8875779"></polygon>
                <polygon id="Fill-18" fill="#1A1918" points="245.437382 131.761427 245.437382 115.850865 261.299052 115.850865"></polygon>
                <polygon id="Fill-19" fill="#1A1918" points="100.219117 89.0142304 116.062593 89.0142304 116.062593 24.5288848 100.219117 24.5288848"></polygon>
                <g id="Group-38" transform="translate(0.000000, 0.056571)">
                    <path d="M172.952173,88.9574765 L172.952173,54.5644811 C172.952173,46.097624 168.535575,38.4118175 159.833973,38.4118175 C151.26154,38.4118175 146.196673,46.097624 146.196673,54.5644811 L146.196673,88.9574765 L130.353196,88.9574765 L130.353196,24.6016977 L145.02809,24.6016977 L146.196673,32.4188959 C149.573251,25.905882 156.975889,23.5615134 163.079563,23.5615134 C170.744177,23.5615134 178.405759,26.687541 182.0431,35.5449235 C187.757449,26.4259742 195.158874,23.8200387 203.470544,23.8200387 C221.652398,23.8200387 230.614763,35.0248313 230.614763,54.3059558 L230.614763,88.9574765 L214.770073,88.9574765 L214.770073,54.3059558 C214.770073,45.8360571 211.26372,38.6733843 202.691287,38.6733843 C194.121279,38.6733843 188.794436,46.097624 188.794436,54.5644811 L188.794436,88.9574765 L172.952173,88.9574765 Z" id="Fill-20" fill="#1A1918"></path>
                    <path d="M299.075368,56.9115263 C299.075368,46.878918 292.321605,38.6736276 280.893514,38.6736276 C269.46239,38.6736276 262.708628,46.878918 262.708628,56.9115263 C262.708628,66.9417014 270.112478,75.1494249 280.893514,75.1494249 C291.671517,75.1494249 299.075368,66.9417014 299.075368,56.9115263 L299.075368,56.9115263 Z M245.437625,115.794476 L245.437625,24.7333327 L260.242294,24.7333327 L261.282314,33.5913235 C266.217406,26.4262175 274.787414,23.3001899 282.062096,23.3001899 C301.801857,23.3001899 314.920057,38.0215355 314.920057,56.9115263 C314.920057,75.6695171 303.099608,90.5204295 282.58059,90.5204295 C275.826827,90.5204295 265.827475,88.4376276 261.282314,81.4014802 L261.282314,115.794476 L245.437625,115.794476 Z" id="Fill-22" fill="#1A1918"></path>
                    <path d="M341.555727,24.733576 L341.555727,58.3424793 C341.555727,68.1135207 346.880145,75.5401935 357.011092,75.5401935 C366.749681,75.5401935 373.374275,67.33247 373.374275,57.5608203 L373.374275,24.733576 L389.089796,24.733576 L389.089796,89.0893548 L374.932183,89.0893548 L373.892769,80.3609309 C367.270601,86.874553 361.166927,90.0005806 352.205168,90.0005806 C336.878973,90.0005806 325.711038,78.4046544 325.711038,58.4744793 L325.711038,24.733576 L341.555727,24.733576 Z" id="Fill-24" fill="#1A1918"></path>
                    <path d="M425.464117,6.62487926 L425.464117,24.8627779 L443.127477,24.8627779 L443.127477,38.541506 L425.334948,38.541506 L425.334948,66.2894876 C425.334948,72.4144092 428.709707,75.4084369 433.647224,75.4084369 C436.113557,75.4084369 438.971642,74.6267779 441.308806,73.4545935 L445.722978,87.0037548 C441.177212,88.8280313 437.410702,89.6096903 432.607204,89.7392571 C418.710354,90.2617825 409.619427,82.3150175 409.619427,66.2894876 L409.619427,38.541506 L397.669809,38.541506 L397.669809,24.8627779 L409.619427,24.8627779 L409.619427,8.31715576 L425.464117,6.62487926 Z" id="Fill-26" fill="#1A1918"></path>
                    <polygon id="Fill-28" fill="#B0ACA9" points="0.128198384 88.9586931 15.209398 88.9586931 15.209398 73.8310065"></polygon>
                    <polygon id="Fill-30" fill="#1A1918" points="100.600255 15.5916332 115.681455 15.5916332 115.681455 0.463946544"></polygon>
                    <polygon id="Fill-32" fill="#FFFEFE" points="408.264369 5.19897512 426.27703 5.19897512 408.264369 23.2671594"></polygon>
                    <path d="M25.3444687,28.5059171 C25.3444687,21.732553 31.448143,16.3905069 44.176411,16.3905069 C54.046595,16.3905069 62.6190281,21.3408111 65.7354495,26.5520737 L69.1235497,24.8044424 L78.2702679,17.47753 C71.0095335,5.05918894 57.1011611,1.40881106 43.6579171,1.40881106 C26.9029827,1.53959447 8.46279131,9.22600922 8.46279131,27.9846083 C8.46279131,44.2771797 19.351164,50.7214562 33.1643276,53.7927373 C42.0775719,48.9488848 45.8549973,44.2260829 51.9847478,40.8950599 C48.7464348,40.2198525 49.0241777,40.3932166 45.6057563,39.9704516 C34.6961588,38.6674839 25.3444687,36.452682 25.3444687,28.5059171" id="Fill-34" fill="#1A1918"></path>
                    <path d="M86.6248728,11.7429512 C86.7146238,9.7696424 78.5127168,16.8136977 8.17219214,75.1735134" id="Stroke-36" stroke="#FFFFFF" stroke-width="2.254"></path>
                </g>
            </g>
        </g>
    </g>
</svg>